<svg width="4174" height="4205" viewBox="0 0 4174 4205" fill="none" xmlns="http://www.w3.org/2000/svg">
<g clip-path="url(#clip0_1_643)">
<path d="M3371.16 461.77C3662.25 759.47 3775.66 1216.89 3868.27 1685.64C3960.88 2154.39 4032.72 2635.45 3833.27 2941.64C3634.8 3247.85 3165.1 3379.22 2718.07 3518.14C2271.09 3658 1846.75 3806.4 1515 3689.21C1184.25 3572 946.09 3191.15 632.32 2785.72C319.5 2381.22 -68.9204 1953.1 10.4596 1625.16C90.7896 1298.16 637.999 1072.29 1070.84 798.22C1503.69 525.09 1822.18 204.71 2215.33 114C2609.43 24.2 3079.13 163.12 3371.16 461.77Z" fill="#F0F0F0"/>
<path fill-rule="evenodd" clip-rule="evenodd" d="M1412.57 3925L684.859 317L4173.31 1490.83L1412.57 3925Z" fill="#D6DEFF"/>
<path fill-rule="evenodd" clip-rule="evenodd" d="M2136.21 2822.15L2393.51 3863H2605.74L2461.83 1861.3L2169.64 1897.65L2136.21 2822.15Z" fill="#3C3744"/>
<path d="M2438.18 2061.33L2420.68 1817.83L2128.49 1854.18L2095.06 2778.71L2173.4 3095.64" stroke="#1B3C87" stroke-width="17.9" stroke-linecap="round" stroke-linejoin="round"/>
<path d="M2232 3332.8L2352.32 3819.53H2564.56L2483.37 2690.23" stroke="#1B3C87" stroke-width="17.9" stroke-linecap="round" stroke-linejoin="round"/>
<path fill-rule="evenodd" clip-rule="evenodd" d="M1795.62 1850.93C1796.97 1905.04 1780.74 3893.68 1780.74 3893.68H2008C2025.59 3797.68 2297.5 1875.28 2297.5 1875.28C2297.5 1875.28 1794.27 1796.81 1795.62 1850.93Z" fill="#3C3744"/>
<path fill-rule="evenodd" clip-rule="evenodd" d="M2340.92 464.94C2329.37 545.78 2398.57 674.04 2333.65 788.25C2247.06 940.59 1884.65 843.95 1848.42 826.25C1824.58 814.56 1800.51 799.43 1802.51 710.57C1804.51 621.71 1945.51 495.94 1953.66 395.57C1958.66 334.57 1989.72 178.95 2054.32 151.85C2314.34 5.56984 2352.46 384.09 2340.92 464.94Z" fill="#FF9A36"/>
<path d="M1826.24 593C1869.02 524.28 1928.65 449.63 1933.89 385.36C1938.89 324.41 1968.24 163.08 2034.54 141.64" stroke="#1B3C87" stroke-width="17.9" stroke-linecap="round" stroke-linejoin="round"/>
<path d="M1828.65 816.13C1814.14 800.91 1792.56 792.98 1785.21 746.2" stroke="#1B3C87" stroke-width="17.9" stroke-linecap="round" stroke-linejoin="round"/>
<path fill-rule="evenodd" clip-rule="evenodd" d="M2903.87 449.79H3532.46V795.88H2903.87V449.79Z" fill="#EAF0FF"/>
<path d="M2246 1951.55L2263.44 1828.46C2263.44 1828.46 1760.2 1749.99 1761.55 1804.1C1762.02 1822.84 1760.38 2073.41 1758.03 2393.1" stroke="#1B3C87" stroke-width="17.9" stroke-linecap="round" stroke-linejoin="round"/>
<path d="M2041.55 3387.26C2088.63 3059.91 2150.81 2622.84 2197.37 2294.81" stroke="#1B3C87" stroke-width="17.9" stroke-linecap="round" stroke-linejoin="round"/>
<path d="M1754 2932C1750.33 3404.9 1746.72 3846.87 1746.72 3846.87H1974C1976.4 3833.75 1983.56 3786.51 1994.12 3714.73" stroke="#1B3C87" stroke-width="17.9" stroke-linecap="round" stroke-linejoin="round"/>
<path fill-rule="evenodd" clip-rule="evenodd" d="M2665.68 1211.67C2684.01 1242.82 2737.21 1329.78 2737.21 1329.78C2737.21 1329.78 2993.38 962.78 3008.78 940.61C3024.18 918.44 3021.68 853.61 3038.53 854.39C3055.38 855.17 3361.78 848.53 3361.78 877.85C3361.78 907.17 3183.67 948.22 3148.48 971.67C3113.29 995.12 2815.7 1607.18 2699.89 1607.18C2584.08 1607.18 2474.13 1459.11 2464.6 1420.27C2455.07 1381.43 2514.92 955.44 2665.68 1211.67Z" fill="white"/>
<path d="M3123.63 816.65C3218.21 817.37 3342.32 821.48 3342.32 840.14C3342.32 869.46 3164.2 910.5 3129.02 933.96C3112.36 945.07 3036.86 1088.15 2949.69 1235.73" stroke="#1B3C87" stroke-width="17.9" stroke-linecap="round" stroke-linejoin="round"/>
<path d="M2771.61 1501.63C2736.07 1543.32 2704.36 1569.47 2680.43 1569.47C2564.61 1569.47 2454.66 1421.4 2445.14 1382.55C2435.62 1343.7 2495.46 917.73 2646.22 1173.96C2664.54 1205.11 2717.75 1292.07 2717.75 1292.07C2717.75 1292.07 2973.91 925.07 2989.31 902.89C2997.83 890.66 3000.87 865.37 3004.74 845.33" stroke="#1B3C87" stroke-width="17.9" stroke-linecap="round" stroke-linejoin="round"/>
<path fill-rule="evenodd" clip-rule="evenodd" d="M2365.78 813.18C2522.55 743.63 2690.33 1111.63 2694.39 1190.93C2648.21 1224.86 2434.86 1314.86 2384.32 1309.83C2342 1243.92 2179.11 896 2365.78 813.18Z" fill="#00CAFE"/>
<path d="M2335.46 785.74C2492.23 716.2 2660 1084.2 2664.07 1163.5C2617.89 1197.43 2404.54 1287.43 2354 1282.4C2311.72 1216.49 2148.79 868.55 2335.46 785.74Z" stroke="#1B3C87" stroke-width="17.9" stroke-linecap="round" stroke-linejoin="round"/>
<path d="M3102 422.31H3498.4V768.4H2869.84V535.53" stroke="#1B3C87" stroke-width="17.9" stroke-linecap="round" stroke-linejoin="round"/>
<path d="M3294.07 537.87L3427.77 687.5" stroke="#1B3C87" stroke-width="17.9" stroke-linecap="round" stroke-linejoin="round"/>
<path d="M2975.8 478.6L3182.8 592.69" stroke="#1B3C87" stroke-width="17.9" stroke-linecap="round" stroke-linejoin="round"/>
<path d="M3187.62 596L3490.32 431.09" stroke="#1B3C87" stroke-width="17.9" stroke-linecap="round" stroke-linejoin="round"/>
<path d="M2872.18 767.87L3078.92 536.6" stroke="#1B3C87" stroke-width="17.9" stroke-linecap="round" stroke-linejoin="round"/>
<path d="M1675.43 3847.29H2060.89" stroke="#1B3C87" stroke-width="17.9" stroke-linecap="round" stroke-linejoin="round"/>
<path d="M1669.52 3917.61H2055" stroke="#1B3C87" stroke-width="17.9" stroke-linecap="round" stroke-linejoin="round"/>
<path d="M2315.93 3820.47H2612.81" stroke="#1B3C87" stroke-width="17.9" stroke-linecap="round" stroke-linejoin="round"/>
<path d="M2322.87 3885.6H2619.75" stroke="#1B3C87" stroke-width="17.9" stroke-linecap="round" stroke-linejoin="round"/>
<path fill-rule="evenodd" clip-rule="evenodd" d="M2159.91 709.1C2506.05 712.32 2573.76 1310.77 2470.02 1866.58C2415.43 1905.89 1891.29 1935.37 1800.65 1874.22C1710.01 1813.07 1690.37 704.74 2159.91 709.1Z" fill="#00CAFE"/>
<path d="M1941.05 1880.71C1862.47 1876.34 1798.41 1866.2 1771.78 1848.23C1681.15 1787.08 1661.49 678.75 2131 683.11C2317.16 684.85 2422.79 858.75 2464.52 1105.59" stroke="#1B3C87" stroke-width="17.9" stroke-linecap="round" stroke-linejoin="round"/>
<path d="M2484.59 1446.57C2480.7 1574.64 2465.74 1708.81 2441.15 1840.57C2419.59 1856.09 2324.81 1870.08 2212.42 1877.57" stroke="#1B3C87" stroke-width="17.9" stroke-linecap="round" stroke-linejoin="round"/>
<path fill-rule="evenodd" clip-rule="evenodd" d="M1881.25 807.71C2059.34 840.71 1961.02 1275.91 1912.67 1350.05C1851.43 1352.47 1612.09 1303.31 1572.6 1267.85C1579.86 1182.43 1669.18 768.37 1881.25 807.71Z" fill="#00CAFE"/>
<path d="M1558.74 1238.14C1565.99 1152.72 1655.32 738.65 1867.38 778" stroke="#1B3C87" stroke-width="17.9" stroke-linecap="round" stroke-linejoin="round"/>
<path d="M1966.59 1051.65C1956.1 1168.14 1921.8 1285.07 1898.8 1320.33C1866.67 1321.6 1785.5 1308.67 1709.9 1290.97" stroke="#1B3C87" stroke-width="17.9" stroke-linecap="round" stroke-linejoin="round"/>
<path fill-rule="evenodd" clip-rule="evenodd" d="M1615.43 1277.4C1597.53 1332.58 1534.68 1567.32 1541.43 1635.17C1548.18 1703.02 1847.86 2166.76 1894.08 2202.55C1913.47 2169 1960.44 2085.49 1960.44 2085.49C1935.09 2048.21 1782.99 1615.78 1784.44 1568.81C1785.89 1521.84 1843.84 1364.73 1860.24 1337.89" fill="white"/>
<path d="M1771.89 1607C1763.53 1577.18 1758.62 1555.54 1758.89 1546.9C1760.38 1499.9 1818.28 1342.82 1834.68 1315.98" stroke="#1B3C87" stroke-width="17.9" stroke-linecap="round" stroke-linejoin="round"/>
<path d="M1557.41 1372.73C1535.03 1461.36 1511.61 1570.49 1515.84 1613.27C1522.55 1681.12 1822.27 2144.86 1868.49 2180.65C1887.88 2147.1 1934.85 2063.59 1934.85 2063.59C1921.01 2043.24 1869.39 1905.1 1825.61 1776.22" stroke="#1B3C87" stroke-width="17.9" stroke-linecap="round" stroke-linejoin="round"/>
<path fill-rule="evenodd" clip-rule="evenodd" d="M1773.08 3951.54L1766.51 4098.94L1738.34 4202.21L2100.28 4204.56L1991.37 4028.56L1992.78 3950.17" fill="white"/>
<path d="M1856.33 4172.23L2073.77 4173.64L1964.87 3997.64L1966.27 3919.25" stroke="#1B3C87" stroke-width="17.9" stroke-linecap="round" stroke-linejoin="round"/>
<path d="M1746.58 3920.61L1740 4068L1711.83 4171.27" stroke="#1B3C87" stroke-width="17.9" stroke-linecap="round" stroke-linejoin="round"/>
<path fill-rule="evenodd" clip-rule="evenodd" d="M2397.77 3906.39L2415.52 3980.02L2385.93 4191.02L2873.09 4187.08L2600.26 4004.31L2595 3905.04" fill="white"/>
<path d="M2573.75 3986.68L2568.49 3887.41" stroke="#1B3C87" stroke-width="17.9" stroke-linecap="round" stroke-linejoin="round"/>
<path d="M2371.26 3888.72L2389.01 3962.35L2359.43 4173.35L2846.59 4169.41L2660.52 4044.8" stroke="#1B3C87" stroke-width="17.9" stroke-linecap="round" stroke-linejoin="round"/>
<path fill-rule="evenodd" clip-rule="evenodd" d="M3415.54 436.18C3415.54 414.995 3421.82 394.285 3433.59 376.669C3445.35 359.053 3462.08 345.323 3481.66 337.215C3501.23 329.107 3522.76 326.985 3543.54 331.117C3564.32 335.25 3583.41 345.451 3598.39 360.432C3613.37 375.412 3623.57 394.498 3627.7 415.276C3631.83 436.054 3629.71 457.591 3621.6 477.164C3613.5 496.736 3599.77 513.464 3582.15 525.233C3564.53 537.001 3543.82 543.282 3522.64 543.28C3494.23 543.28 3466.99 531.996 3446.91 511.911C3426.82 491.826 3415.54 464.585 3415.54 436.18Z" fill="#FF9A36"/>
<path d="M3608.57 449.57C3602.96 468.645 3592.15 485.783 3577.36 499.065C3562.56 512.347 3544.36 521.248 3524.79 524.773C3505.22 528.298 3485.06 526.307 3466.56 519.024C3448.06 511.74 3431.95 499.451 3420.04 483.532C3408.12 467.613 3400.88 448.693 3399.11 428.889C3397.33 409.085 3401.11 389.179 3410.01 371.399C3418.91 353.619 3432.58 338.668 3449.5 328.218C3466.42 317.768 3485.91 312.232 3505.79 312.23" stroke="#1B3C87" stroke-width="17.9" stroke-linecap="round" stroke-linejoin="round"/>
<path fill-rule="evenodd" clip-rule="evenodd" d="M1979.39 371.91C1972.59 230.68 2053.73 112.01 2160.63 106.91C2267.53 101.81 2359.71 212 2366.51 353.27C2373.31 494.54 2292.16 613.18 2185.27 618.32C2078.38 623.46 1986.19 513.15 1979.39 371.91Z" fill="white"/>
<path fill-rule="evenodd" clip-rule="evenodd" d="M2004.58 464.42C2011.34 498.03 2038.26 683.42 2036.26 791.42C2068.48 819.69 2192.2 815.79 2213.49 788.03C2208.8 744.03 2204.71 635.62 2215.15 606.84" fill="white"/>
<path d="M2195.45 765.35C2190.76 721.35 2182.52 628.17 2192.96 599.35" stroke="#1B3C87" stroke-width="17.9" stroke-linecap="round" stroke-linejoin="round"/>
<path d="M2007.45 593.28C2013.97 653.28 2019.14 719.15 2018.23 768.74C2035.58 783.97 2079.5 789.87 2119.65 787.74" stroke="#1B3C87" stroke-width="17.9" stroke-linecap="round" stroke-linejoin="round"/>
<path d="M1986.54 441.72C1988.23 450.13 1991.18 468.05 1994.63 491.88" stroke="#1B3C87" stroke-width="17.9" stroke-linecap="round" stroke-linejoin="round"/>
<path d="M2339.85 439.32C2314.21 530.76 2249.15 596.87 2169.96 600.68C2138.34 602.21 2108.01 593.68 2080.8 577.14" stroke="#1B3C87" stroke-width="17.9" stroke-linecap="round" stroke-linejoin="round"/>
<path d="M2331 236.36C2339.26 258.496 2345.06 281.474 2348.3 304.88" stroke="#1B3C87" stroke-width="17.9" stroke-linecap="round" stroke-linejoin="round"/>
<path fill-rule="evenodd" clip-rule="evenodd" d="M2134.09 335C2133.35 319.52 2139.97 306.62 2148.88 306.19C2157.79 305.76 2165.63 317.97 2166.37 333.44C2167.11 348.91 2160.5 361.82 2151.58 362.25C2142.66 362.68 2134.84 350.47 2134.09 335Z" fill="#1B3C87"/>
<path fill-rule="evenodd" clip-rule="evenodd" d="M2278.06 326.821C2277.32 311.341 2283.94 298.441 2292.85 298.011C2301.76 297.581 2309.6 309.791 2310.34 325.261C2311.08 340.731 2304.47 353.641 2295.55 354.071C2286.63 354.501 2278.81 342.291 2278.06 326.821Z" fill="#1B3C87"/>
<path fill-rule="evenodd" clip-rule="evenodd" d="M2419.75 290.67C2419.75 290.57 2419.91 290.48 2420.12 290.47C2420.33 290.46 2420.51 290.53 2420.51 290.64C2420.51 290.75 2420.35 290.83 2420.14 290.84C2419.93 290.85 2419.76 290.78 2419.75 290.67Z" fill="#1B3C87"/>
<path d="M2227 343.37C2229.29 367.15 2243 408.2 2278.1 420.16" stroke="#1B3C87" stroke-width="17.9" stroke-linecap="round" stroke-linejoin="round"/>
<path d="M2144.34 469.07C2144.26 483.07 2155.87 503.78 2174.93 505.89" stroke="#1B3C87" stroke-width="17.9" stroke-linecap="round" stroke-linejoin="round"/>
<path d="M2328.79 471.37C2319.84 515.27 2347.72 627.1 2343.09 678.7C2338.46 730.3 2309.9 753.17 2309.9 753.17" stroke="#1B3C87" stroke-width="17.9" stroke-linecap="round" stroke-linejoin="round"/>
<path fill-rule="evenodd" clip-rule="evenodd" d="M1952.14 87.81C1951.51 74.692 1954.78 61.6806 1961.54 50.4215C1968.3 39.1624 1978.25 30.1613 1990.13 24.5566C2002 18.9519 2015.28 16.9953 2028.27 18.9342C2041.25 20.8732 2053.38 26.6206 2063.1 35.4496C2072.82 44.2786 2079.71 55.7927 2082.89 68.5356C2086.07 81.2785 2085.4 94.6778 2080.96 107.039C2076.52 119.4 2068.52 130.168 2057.96 137.981C2047.4 145.793 2034.77 150.3 2021.65 150.93C2012.94 151.35 2004.24 150.05 1996.03 147.105C1987.82 144.16 1980.28 139.628 1973.82 133.767C1967.37 127.905 1962.13 120.83 1958.41 112.945C1954.69 105.06 1952.56 96.5187 1952.14 87.81V87.81Z" fill="#FF9A36"/>
<path d="M1954.39 116.9C1946.97 107.644 1942.16 96.5686 1940.48 84.8262C1938.79 73.0838 1940.27 61.1032 1944.78 50.1309C1949.3 39.1585 1956.66 29.5952 1966.12 22.4357C1975.58 15.2763 1986.79 10.7823 1998.57 9.42129C2010.36 8.06027 2022.29 9.88193 2033.13 14.6968C2043.98 19.5116 2053.33 27.1437 2060.22 36.7991C2067.12 46.4546 2071.3 57.7806 2072.33 69.5989C2073.36 81.4173 2071.21 93.2962 2066.09 104" stroke="#1B3C87" stroke-width="17.9" stroke-linecap="round" stroke-linejoin="round"/>
<path fill-rule="evenodd" clip-rule="evenodd" d="M2162 101.45C2055.1 106.6 1974 225.27 1980.76 366.51C1981.63 384.65 1983.97 402.69 1987.76 420.45C2022.48 368.29 2068.54 313.64 2099.34 283.02C2169 280.16 2266 258.37 2342 235.14C2306.26 152.55 2237.94 97.7999 2162 101.45Z" fill="#FF9A36"/>
<path d="M1970.91 267.37C1961.7 312.617 1961.94 359.279 1971.61 404.43C2006.34 352.26 2052.4 297.61 2083.19 267C2123.26 265.35 2172.43 257.43 2221.45 246.57" stroke="#1B3C87" stroke-width="17.9" stroke-linecap="round" stroke-linejoin="round"/>
<path d="M1976 246.18C1973.51 254.5 1971.35 263.03 1969.54 271.77" stroke="#1B3C87" stroke-width="17.9" stroke-linecap="round" stroke-linejoin="round"/>
<path d="M2324.45 223.52C2288.7 140.93 2220.38 86.18 2144.45 89.83C2066.71 93.58 2002.59 157.35 1976.01 246.18" stroke="#1B3C87" stroke-width="17.9" stroke-linecap="round" stroke-linejoin="round"/>
<path fill-rule="evenodd" clip-rule="evenodd" d="M2021.94 431.91C2014.73 437.507 2006.08 440.948 1996.99 441.836C1987.91 442.724 1978.76 441.022 1970.6 436.928C1962.44 432.834 1955.61 426.514 1950.89 418.699C1946.17 410.884 1943.76 401.894 1943.94 392.767C1944.12 383.64 1946.87 374.75 1951.89 367.124C1956.91 359.498 1963.98 353.448 1972.29 349.673C1980.6 345.899 1989.81 344.554 1998.86 345.793C2007.9 347.033 2016.41 350.808 2023.4 356.68" fill="white"/>
<path d="M2010 422.7C2002.79 428.297 1994.14 431.738 1985.05 432.626C1975.97 433.514 1966.82 431.812 1958.66 427.718C1950.5 423.624 1943.67 417.304 1938.95 409.489C1934.23 401.674 1931.82 392.684 1932 383.557C1932.18 374.43 1934.93 365.54 1939.95 357.914C1944.97 350.288 1952.04 344.238 1960.35 340.463C1968.66 336.689 1977.87 335.344 1986.92 336.583C1995.96 337.823 2004.47 341.598 2011.46 347.47" stroke="#1B3C87" stroke-width="17.9" stroke-linecap="round" stroke-linejoin="round"/>
</g>
<defs>
<clipPath id="clip0_1_643">
<rect width="4173.31" height="4204.56" fill="white"/>
</clipPath>
</defs>
</svg>
