<svg width="4899" height="5055" viewBox="0 0 4899 5055" fill="none" xmlns="http://www.w3.org/2000/svg">
<path fill-rule="evenodd" clip-rule="evenodd" d="M3601 3551.59C3601 3242.59 3851.53 2992 4160.58 2992C4469.63 2992 4720.17 3242.54 4720.17 3551.59C4720.17 3860.64 4469.63 4111.22 4160.58 4111.22C3851.53 4111.22 3601 3860.63 3601 3551.59Z" fill="#D6DEFF"/>
<path fill-rule="evenodd" clip-rule="evenodd" d="M699 2384.79C699 1609.94 1327.14 981.79 2102 981.79C2876.86 981.79 3505 1609.92 3505 2384.79C3505 3159.66 2876.86 3787.79 2102 3787.79C1327.14 3787.79 699 3159.64 699 2384.79Z" fill="#EAF0FF"/>
<path fill-rule="evenodd" clip-rule="evenodd" d="M792.09 2876.26C831.57 2839.81 970.09 2712.67 998.76 2699.71C1027.43 2686.75 1359.92 3057.66 1327.08 3084.2C1294.24 3110.74 1120.44 3270.8 1055.08 3311.5C924.52 3169.4 833.74 3006.21 792.09 2876.26Z" fill="white"/>
<path d="M778.801 2844C818.281 2807.55 951.901 2684.3 980.611 2671.34C1009.32 2658.38 1344.2 3056.74 1311.36 3083.27C1278.52 3109.8 1104.22 3279.93 1052.71 3312.55" stroke="#1B3C87" stroke-width="17.9" stroke-linecap="round" stroke-linejoin="round"/>
<path fill-rule="evenodd" clip-rule="evenodd" d="M1653.4 2457.3C1843.92 2747.06 1376.02 3110.7 1304.4 3131.59C1232.78 3152.48 924.4 2730 946.73 2674.36C969.06 2618.72 1423.33 2107.39 1653.4 2457.3Z" fill="#00CAFE"/>
<path d="M1165.1 2402.47C1316.37 2297.53 1504.64 2236.98 1628.22 2424.93C1818.74 2714.69 1350.84 3078.33 1279.22 3099.22C1207.6 3120.11 899.221 2697.58 921.561 2641.99C925.891 2631.23 946.411 2603.36 978.371 2567.99" stroke="#1B3C87" stroke-width="17.9" stroke-linecap="round" stroke-linejoin="round"/>
<path fill-rule="evenodd" clip-rule="evenodd" d="M2036.2 2211.54C1821.61 2210.25 1610.46 2251.54 1506.39 2332.39C1337.39 2463.71 1224.99 3275.47 1273.46 3517.04C1505.62 3687.21 1792.01 3787.76 2101.92 3787.76C2346.57 3787.76 2576.55 3725.06 2776.8 3614.98C2812.25 3313.35 2724.87 2451.07 2586.67 2346.17C2468.84 2256.72 2250.8 2212.83 2036.2 2211.54Z" fill="#00CAFE"/>
<path d="M1315.32 2678.38C1355.98 2499.88 1410.42 2351.02 1474.92 2300.92C1683.06 2139.22 2319.52 2135.78 2555.19 2314.68C2701.8 2426 2797.73 3391.51 2737.53 3632.33" stroke="#1B3C87" stroke-width="17.9" stroke-linecap="round" stroke-linejoin="round"/>
<path d="M1242.7 3489.56C1232.97 3428.1 1232.36 3328.43 1239.7 3212.02" stroke="#1B3C87" stroke-width="17.9" stroke-linecap="round" stroke-linejoin="round"/>
<path d="M284 9L925 251L649.91 979.48L9 737.49L284 9Z" stroke="#B6C6FC" stroke-width="17.9" stroke-linecap="round" stroke-linejoin="round"/>
<path d="M3323 3638.32L3459.17 4876.63L4335.78 3383L3323 3638.32Z" stroke="#B6C6FC" stroke-width="17.9" stroke-linecap="round" stroke-linejoin="round"/>
<path d="M264.83 1038.9C264.83 830.9 433.44 662.3 641.43 662.3C849.42 662.3 1018 830.91 1018 1038.9C1018 1246.89 849.39 1415.5 641.4 1415.5C433.41 1415.5 264.83 1246.89 264.83 1038.9Z" stroke="#B6C6FC" stroke-width="17.9" stroke-linecap="round" stroke-linejoin="round"/>
<path fill-rule="evenodd" clip-rule="evenodd" d="M2938 3524C2908.1 3494.1 2702 3213 2678.78 3186.54C2655.56 3160.08 3096.2 2794.69 3123.3 2826.64C3150.4 2858.59 3259.05 3010.64 3309.71 3094.24C3269 3167.61 3043.89 3451.73 2938 3524Z" fill="white"/>
<path d="M2948 3501.73C2923 3467.64 2699.63 3159.92 2676.4 3133.45C2653.17 3106.98 3093.83 2741.6 3120.93 2773.55C3148.03 2805.5 3277.82 2983.13 3322.52 3070.05" stroke="#1B3C87" stroke-width="17.9" stroke-linecap="round" stroke-linejoin="round"/>
<path fill-rule="evenodd" clip-rule="evenodd" d="M2464.49 2303C2687 2150.32 3224.05 2674.69 3222.71 2831C3221.37 2987.31 2743.87 3271.34 2664.33 3230.32C2576.66 3185.15 2123.06 2537.14 2464.49 2303Z" fill="#00CAFE"/>
<path d="M2330.41 2644.24C2300.41 2498.9 2319.67 2359.48 2443.54 2274.53C2666.09 2121.89 3203.1 2646.25 3201.75 2802.6C3200.4 2958.95 2722.92 3242.93 2643.37 3201.92C2617.92 3188.79 2561.62 3124.86 2502.89 3034.99" stroke="#1B3C87" stroke-width="17.9" stroke-linecap="round" stroke-linejoin="round"/>
<path d="M699 2384.79C699 1609.94 1327.14 981.79 2102 981.79C2876.86 981.79 3505 1609.92 3505 2384.79C3505 3159.66 2876.86 3787.79 2102 3787.79C1327.14 3787.79 699 3159.64 699 2384.79Z" stroke="#1B3C87" stroke-width="17.9" stroke-linecap="round" stroke-linejoin="round"/>
<path fill-rule="evenodd" clip-rule="evenodd" d="M3308 2618.3C3309.38 2577.99 3387.93 2561.64 3483.45 2581.77C3578.97 2601.9 3655.29 2650.89 3653.92 2691.19C3652.55 2731.49 3573.98 2747.84 3478.46 2727.71C3382.94 2707.58 3306.59 2658.6 3308 2618.3Z" fill="white"/>
<path fill-rule="evenodd" clip-rule="evenodd" d="M3336.33 2464.11C3337.71 2423.81 3416.26 2407.45 3511.78 2427.58C3607.3 2447.71 3683.63 2496.7 3682.25 2537C3680.87 2577.3 3602.31 2593.66 3506.79 2573.53C3411.27 2553.4 3335 2504.41 3336.33 2464.11Z" fill="white"/>
<path fill-rule="evenodd" clip-rule="evenodd" d="M3332.67 2304.76C3334.05 2264.46 3412.6 2248.11 3508.13 2268.23C3603.66 2288.35 3679.97 2337.35 3678.59 2377.65C3677.21 2417.95 3598.65 2434.31 3503.13 2414.18C3407.61 2394.05 3331.29 2345.06 3332.67 2304.76Z" fill="white"/>
<path d="M3371.93 2246.28C3403.32 2240.48 3445.34 2241.72 3491.29 2251.4C3586.81 2271.53 3663.13 2320.52 3661.75 2360.82C3660.82 2388.03 3624.7 2404.33 3571.92 2405.82" stroke="#1B3C87" stroke-width="17.9" stroke-linecap="round" stroke-linejoin="round"/>
<path d="M3348.39 2413.55C3379.87 2399.92 3433.95 2397.89 3494.95 2410.75C3590.47 2430.88 3666.79 2479.87 3665.41 2520.17C3664.41 2549.55 3622.41 2566.17 3562.64 2565.27" stroke="#1B3C87" stroke-width="17.9" stroke-linecap="round" stroke-linejoin="round"/>
<path d="M3368 2557.13C3396.16 2554.89 3430.13 2557.26 3466.58 2564.94C3562.1 2585.07 3638.42 2634.05 3637.04 2674.36C3636.18 2699.54 3605.17 2715.36 3558.71 2718.8" stroke="#1B3C87" stroke-width="17.9" stroke-linecap="round" stroke-linejoin="round"/>
<path fill-rule="evenodd" clip-rule="evenodd" d="M516.899 2363.26C518.279 2322.96 596.839 2306.61 692.359 2326.74C787.879 2346.87 864.199 2395.85 862.819 2436.16C861.439 2476.47 782.889 2492.81 687.359 2472.68C591.829 2452.55 515.519 2403.56 516.899 2363.26Z" fill="white"/>
<path fill-rule="evenodd" clip-rule="evenodd" d="M545.261 2209.07C546.641 2168.77 625.201 2152.42 720.721 2172.55C816.241 2192.68 892.561 2241.67 891.181 2282C889.801 2322.33 811.251 2338.65 715.731 2318.52C620.211 2298.39 543.881 2249.38 545.261 2209.07Z" fill="white"/>
<path fill-rule="evenodd" clip-rule="evenodd" d="M541.6 2049.72C542.98 2009.42 621.54 1993.07 717.06 2013.2C812.58 2033.33 888.9 2082.32 887.52 2122.62C886.14 2162.92 807.59 2179.27 712.07 2159.14C616.55 2139.01 540.23 2090 541.6 2049.72Z" fill="white"/>
<path d="M561.371 2087.83C531.971 2068.43 514.241 2046.75 514.911 2027.14C516.291 1986.84 594.851 1970.49 690.371 1990.62C733.161 1999.62 772.091 2014.44 801.921 2031.62" stroke="#1B3C87" stroke-width="17.9" stroke-linecap="round" stroke-linejoin="round"/>
<path d="M601.809 2267.43C551.149 2243.98 517.649 2213.31 518.569 2186.49C519.949 2146.19 598.509 2129.84 694.029 2149.96C733.829 2158.35 770.299 2171.75 799.199 2187.44" stroke="#1B3C87" stroke-width="17.9" stroke-linecap="round" stroke-linejoin="round"/>
<path d="M628.39 2442C548.54 2418.74 488.99 2376.31 490.21 2340.67C491.59 2300.37 570.15 2284.01 665.67 2304.14C721.54 2315.92 770.85 2337.56 801.87 2361.57" stroke="#1B3C87" stroke-width="17.9" stroke-linecap="round" stroke-linejoin="round"/>
<path fill-rule="evenodd" clip-rule="evenodd" d="M2250.88 1903.25C2241.79 1954.99 2199.88 2163.32 2232 2389.14C2194.95 2417.14 1978.92 2437.37 1919.5 2389.14C1921.6 2297.55 1923.69 2114.38 1915.31 2067.54C1906.93 2020.7 2260 1851.52 2250.88 1903.25Z" fill="white"/>
<path d="M1895.24 2359.1C1897.33 2267.51 1899.43 2084.34 1891.04 2037.5C1882.65 1990.66 2235.7 1821.5 2226.62 1873.21C2217.54 1924.92 2175.62 2133.28 2207.74 2359.1C2190.97 2371.75 2137.54 2382.83 2078.55 2386.7" stroke="#1B3C87" stroke-width="17.9" stroke-linecap="round" stroke-linejoin="round"/>
<path fill-rule="evenodd" clip-rule="evenodd" d="M1545.41 1603.47C1565.97 1351.25 1755.26 1160.58 1968.19 1177.59C2181.12 1194.6 2337.08 1412.85 2316.51 1665.07C2295.94 1917.29 2106.66 2108 1893.73 2091C1680.8 2074 1524.84 1855.69 1545.41 1603.47Z" fill="white"/>
<path d="M2097.32 2004.47C2031.48 2049.38 1954.46 2072.55 1874.08 2066.13C1774.92 2058.21 1688.08 2006.64 1625.74 1928.33" stroke="#1B3C87" stroke-width="17.9" stroke-linecap="round" stroke-linejoin="round"/>
<path d="M1543 1764.05C1526.9 1706.42 1520.47 1643.66 1525.77 1578.65C1546.33 1326.43 1735.62 1135.76 1948.56 1152.77C2161.5 1169.78 2317.44 1388.03 2296.88 1640.25C2290.68 1716.25 2269.17 1786.65 2236.3 1847.47" stroke="#1B3C87" stroke-width="17.9" stroke-linecap="round" stroke-linejoin="round"/>
<path fill-rule="evenodd" clip-rule="evenodd" d="M1919.75 1511.35C1922.69 1484.09 1935.08 1463.07 1947.42 1464.4C1959.76 1465.73 1967.37 1488.92 1964.42 1516.17C1961.47 1543.42 1949.08 1564.45 1936.75 1563.11C1924.42 1561.77 1916.8 1538.6 1919.75 1511.35Z" fill="#1B3C87"/>
<path d="M1750.08 1534.19C1740.29 1576.39 1713.16 1624.61 1680.76 1650.19" stroke="#1B3C87" stroke-width="17.9" stroke-linecap="round" stroke-linejoin="round"/>
<path d="M1829.2 1796.78C1829.2 1787.91 1831.83 1779.25 1836.75 1771.87C1841.68 1764.5 1848.68 1758.76 1856.87 1755.36C1865.07 1751.97 1874.08 1751.08 1882.78 1752.81C1891.47 1754.54 1899.46 1758.81 1905.73 1765.08C1912 1771.35 1916.27 1779.34 1918 1788.03C1919.73 1796.73 1918.84 1805.74 1915.45 1813.94C1912.05 1822.13 1906.31 1829.13 1898.94 1834.05C1891.56 1838.98 1882.9 1841.61 1874.03 1841.61C1862.14 1841.61 1850.74 1836.88 1842.33 1828.48C1833.93 1820.07 1829.2 1808.67 1829.2 1796.78V1796.78Z" stroke="#1B3C87" stroke-width="17.9" stroke-linecap="round" stroke-linejoin="round"/>
<path fill-rule="evenodd" clip-rule="evenodd" d="M2204.1 1672.26C2177.03 1670.33 2099.33 1559.47 2179.04 1483.26C2139.93 1445.16 1909.86 1272.95 1633.45 1379.75C1597.54 1343.23 1499.52 1196.39 1584.13 1133.08C1668.74 1069.77 1704.08 1146.33 1715.04 1176.76C1689.48 1096.42 1703.87 880.32 1919.04 877.93C2134.21 875.54 2365.55 1504.22 2356.2 1617.04C2346.85 1729.86 2346.38 1745.1 2204.1 1672.26Z" fill="#FF9A36"/>
<path d="M2194.76 1170.29C2276.16 1339.02 2329.87 1519.54 2325.27 1575.07C2315.91 1687.89 2315.45 1703.13 2173.17 1630.29C2146.11 1628.36 2068.4 1517.5 2148.11 1441.29C2117.17 1411.14 1966.63 1297 1768.19 1303.61" stroke="#1B3C87" stroke-width="17.9" stroke-linecap="round" stroke-linejoin="round"/>
<path d="M1602.52 1337.79C1566.61 1301.27 1468.59 1154.43 1553.2 1091.12C1637.81 1027.81 1673.2 1104.36 1684.11 1134.8C1658.55 1054.45 1672.95 838.36 1888.11 835.96C1942.11 835.36 1997.18 874.55 2049.18 935.36" stroke="#1B3C87" stroke-width="17.9" stroke-linecap="round" stroke-linejoin="round"/>
<path fill-rule="evenodd" clip-rule="evenodd" d="M2142.63 1725.82C2142.63 1706.32 2148.41 1687.27 2159.24 1671.06C2170.07 1654.85 2185.47 1642.21 2203.48 1634.75C2221.49 1627.29 2241.31 1625.34 2260.43 1629.14C2279.55 1632.95 2297.11 1642.34 2310.9 1656.12C2324.68 1669.91 2334.07 1687.47 2337.88 1706.59C2341.68 1725.71 2339.73 1745.53 2332.27 1763.54C2324.81 1781.55 2312.17 1796.95 2295.96 1807.78C2279.75 1818.61 2260.69 1824.39 2241.2 1824.39C2215.06 1824.39 2189.98 1814.01 2171.5 1795.52C2153.01 1777.03 2142.63 1751.96 2142.63 1725.82Z" fill="white"/>
<path d="M2191.07 1622.92C2206.32 1615.9 2223.11 1612.9 2239.85 1614.19C2256.58 1615.48 2272.71 1621.02 2286.71 1630.3C2300.7 1639.57 2312.09 1652.26 2319.81 1667.17C2327.52 1682.07 2331.3 1698.71 2330.79 1715.48C2330.28 1732.26 2325.49 1748.63 2316.87 1763.04C2308.26 1777.45 2296.11 1789.42 2281.58 1797.82C2267.04 1806.22 2250.6 1810.76 2233.82 1811.03C2217.04 1811.29 2200.46 1807.27 2185.67 1799.33" stroke="#1B3C87" stroke-width="17.9" stroke-linecap="round" stroke-linejoin="round"/>
<path fill-rule="evenodd" clip-rule="evenodd" d="M1626.63 1511.01C1629.57 1483.75 1641.96 1462.73 1654.3 1464.06C1666.64 1465.39 1674.25 1488.58 1671.3 1515.83C1668.35 1543.08 1655.96 1564.11 1643.63 1562.77C1631.3 1561.43 1623.68 1538.26 1626.63 1511.01Z" fill="#1B3C87"/>
</svg>
