<svg width="6121" height="5276" viewBox="0 0 6121 5276" fill="none" xmlns="http://www.w3.org/2000/svg">
<g clip-path="url(#clip0_1_345)">
<path d="M4777.44 1045.43C5275.3 1621.76 5660 2231.55 5697.26 2877.35C5733.26 3523.16 5420.67 4206.27 4922.81 4662.96C4426.24 5119.66 3743.13 5349.96 3157.81 5253.45C2573.75 5155.68 2084.9 4731.14 1464.81 4274.45C846 3817.76 94.72 3328.9 117.87 2864.49C139.74 2398.79 936.06 1956.24 1556.14 1378.62C2176.21 802.29 2618.76 92.1598 3144.92 8.53979C3671.08 -75.0802 4280.87 469.09 4777.44 1045.43Z" fill="#F7F7F7"/>
<path d="M659.78 2052.34L1012.19 1671.57L1364.6 1290.8L1518.15 1786.38L1671.71 2282L1165.71 2167.19L659.78 2052.34Z" stroke="#B2C3FB" stroke-width="10" stroke-linecap="round" stroke-linejoin="round"/>
<path d="M5237.57 1238.58L5040.39 1956.63L5688.69 1831L5237.57 1238.58Z" stroke="#EAF0FF" stroke-width="10" stroke-linecap="round" stroke-linejoin="round"/>
<path d="M1145.14 1297.46H2795.69V3024.25H1145.14V1297.46Z" fill="#D7E0FF"/>
<path opacity="0.67" d="M1747.26 1099.76H4958.67V3414.13H1747.26V1099.76Z" fill="#EAF0FF"/>
<path d="M3757.75 1705.78C3757.75 1477.96 3942.44 1293.28 4170.25 1293.28C4398.06 1293.28 4582.76 1477.96 4582.76 1705.78C4582.76 1933.6 4398.07 2118.28 4170.25 2118.28C3942.43 2118.28 3757.75 1933.6 3757.75 1705.78Z" fill="#D7E0FF"/>
<path d="M3033.84 3742.32C3033.84 3509.73 3222.4 3321.17 3454.99 3321.17C3687.58 3321.17 3876.13 3509.73 3876.13 3742.32C3876.13 3974.91 3687.58 4163.46 3455 4163.46C3222.42 4163.46 3033.84 3974.91 3033.84 3742.32Z" stroke="#EAF0FF" stroke-width="10" stroke-linecap="round" stroke-linejoin="round"/>
<path d="M4332.74 913.82V1233.07H4334.74V1573.88L4096.62 1319.28H3411.93V913.82H4332.74Z" fill="white"/>
<path d="M2248.45 1459.45V1778.7H2246.45V2119.51L2484.58 1864.92H3169.29V1459.45H2248.45Z" fill="white"/>
<path d="M4773.45 2273.13C4773.45 2501.46 4872.69 2542.86 4872.69 2584.27C4872.69 2625.68 4827.69 2852.78 4814.85 2882.62C4848.34 2929.5 5084.58 2953.86 5129.64 2941.68C5133.29 2897.23 5189.92 2608.01 5202.71 2588.53C5215.5 2569.05 5358.58 2454.53 5358.58 2359.59C5358.58 2147.09 5344.58 1864.59 5203.32 1864.59C5031.61 1864.57 4773.45 1948 4773.45 2273.13Z" fill="white"/>
<path d="M5486.22 2952.49C5375.76 2955.23 5137.09 2998.02 5137.09 2998.02C5135.72 3114.62 5167.51 4350.49 5172.31 4536.41H5853.93L6095.4 3134.14C6095.4 3110.28 6090.7 3086.66 6081.58 3064.62C6072.45 3042.58 6059.07 3022.56 6042.2 3005.69C6025.33 2988.82 6005.31 2975.44 5983.27 2966.31C5961.23 2957.19 5937.6 2952.49 5913.75 2952.49C5913.75 2952.49 5620.38 2956.74 5506.47 2952.49C5500.35 2952.29 5493.58 2952.3 5486.22 2952.49Z" fill="#3C3744"/>
<path d="M1903 4002.43C1941.87 3981 2317.52 3703 2338.06 3677C2358.6 3651 2432.33 3502.45 2438.53 3492.76C2444.73 3483.07 2484.17 3464.95 2489.1 3469.13C2519.36 3494.82 2470.86 3582.28 2465.1 3595.65C2493.27 3569.94 2671.49 3430.59 2693.33 3437.44C2850.33 3486.73 2791.58 3696.25 2692.91 3747.3C2665.91 3761.3 2518.08 3817.72 2503.91 3830.08C2489.74 3842.44 1867.91 4360.16 1853.98 4370.08C1846.21 4334.39 1864.06 4023.83 1903 4002.43Z" fill="white"/>
<path d="M4154.11 3276.08C4127.35 3315.69 4059.67 3414.51 4032.9 3453.08C3744.99 3074.27 3446.9 2854.91 3368.65 2481.08C3292.89 2432.87 3297.24 2604.92 3354.15 2733.72C3265.3 2790.56 3181.15 2847.57 3207 2889.72C3306 3050.89 3335.79 3000.18 3372.77 3003.5C3409.75 3006.82 3706 3614.1 3791.35 3709.62C3854.25 3780.03 3903.12 3862.35 4097.55 3946C4118.45 3768.06 4249.48 3346.73 4276.23 3314.75C4252.2 3297.55 4180.87 3236.48 4154.11 3276.08Z" fill="white"/>
<path d="M4249.67 3357.6C4160.52 3289.6 4100.25 3236.08 4098.67 3210.95C4094.9 3151.52 4451.1 2645.07 4693.47 2805.68C4796.3 2880.4 4426 3489.12 4249.67 3357.6Z" fill="#00CAFE"/>
<path d="M4445.43 2782.1C4523.53 2743.36 4603.66 2733.64 4674.16 2780.36" stroke="#1B3C87" stroke-width="25" stroke-linecap="round" stroke-linejoin="round"/>
<path d="M4230.38 3332.28C4139.9 3266.1 4080.96 3210.76 4079.38 3185.63C4077.75 3159.93 4143.38 3050.63 4238.06 2947.9" stroke="#1B3C87" stroke-width="25" stroke-linecap="round" stroke-linejoin="round"/>
<path d="M4919.22 2765.74C4206.43 2772.25 4064.22 3996.32 4031.22 4536.41H5380.62C5550.89 4006.6 5676.78 2876.25 5031.18 2774.24C4994.16 2768.33 4956.71 2765.49 4919.22 2765.74V2765.74Z" fill="#00CAFE"/>
<path d="M219.9 2916.42C196.045 2916.42 172.423 2921.12 150.383 2930.25C128.344 2939.38 108.318 2952.76 91.4505 2969.63C74.5826 2986.5 61.2026 3006.52 52.0744 3028.56C42.9462 3050.6 38.2487 3074.22 38.25 3098.08C38.25 3098.08 168.92 4156.08 216.56 4541.74H1198.75C1198.66 4479.52 1196.75 3167.21 1186.69 2916.42H219.9Z" fill="#3C3744"/>
<path d="M1435.34 2873C781.83 2873 652.69 4012.83 671.71 4541.72H1869.5C1976.13 4018 1993.82 2873 1435.34 2873Z" fill="#00CAFE"/>
<path d="M1882.44 3703.12C1898.63 4012.12 1865.82 4333.85 1819.56 4539.49" stroke="#1B3C87" stroke-width="25" stroke-linecap="round" stroke-linejoin="round"/>
<path d="M1558.61 2872.88C1674.96 2934.8 1754.24 3064.12 1805.67 3227.41" stroke="#1B3C87" stroke-width="25" stroke-linecap="round" stroke-linejoin="round"/>
<path d="M1037 2982.8C1088.66 2931.8 1146.25 2891.23 1210.33 2864.01" stroke="#1B3C87" stroke-width="25" stroke-linecap="round" stroke-linejoin="round"/>
<path d="M1890.38 3969.79C1934.28 3946.68 2281.79 3689.79 2314.09 3655.7C2346.39 3621.61 2400.09 3481.9 2423.58 3461.23C2447.07 3440.56 2462.71 3429.23 2476.69 3444.64C2490.67 3460.05 2466.12 3537.36 2435.69 3577.93C2493.05 3518.39 2628 3423.93 2675.69 3407.37" stroke="#1B3C87" stroke-width="25" stroke-linecap="round" stroke-linejoin="round"/>
<path d="M2109.24 4119.72C1986.83 4225.19 1876.06 4321.35 1856.58 4338.8" stroke="#1B3C87" stroke-width="25" stroke-linecap="round" stroke-linejoin="round"/>
<path d="M2677.62 3712.56C2624.1 3739.83 2518.46 3779.62 2469.62 3814.48C2455.68 3824.43 2403.37 3868.16 2334.71 3926.48" stroke="#1B3C87" stroke-width="25" stroke-linecap="round" stroke-linejoin="round"/>
<path d="M2511.29 3589C2527.95 3575.2 2579.59 3538.3 2631.05 3505C2678.84 3474 2726.48 3446.18 2745.78 3442.79" stroke="#1B3C87" stroke-width="25" stroke-linecap="round" stroke-linejoin="round"/>
<path d="M2552.78 3637.22C2569.44 3623.43 2621.08 3586.52 2672.54 3553.22C2720.33 3522.27 2767.97 3494.41 2787.27 3491.02" stroke="#1B3C87" stroke-width="25" stroke-linecap="round" stroke-linejoin="round"/>
<path d="M2572.77 3702.45C2587.57 3690.01 2633.42 3656.73 2679.1 3626.68C2721.54 3598.77 2763.83 3573.68 2780.97 3570.59" stroke="#1B3C87" stroke-width="25" stroke-linecap="round" stroke-linejoin="round"/>
<path d="M5202.93 2584.88C5189.93 2621.98 5131.38 2896.44 5127.05 2939.73C5072.05 2959.52 4845.78 2926.66 4817.33 2883.37C4845.16 2801.74 4874.74 2639.78 4872.26 2571.75" fill="white"/>
<path d="M4800.32 2858.73C4828.15 2777.1 4857.73 2615.14 4855.25 2547.12" stroke="#1B3C87" stroke-width="25" stroke-linecap="round" stroke-linejoin="round"/>
<path d="M5185.92 2560.24C5172.92 2597.35 5114.37 2871.8 5110.04 2915.09C5083.31 2924.7 5016.22 2921.9 4951.04 2911.51" stroke="#1B3C87" stroke-width="25" stroke-linecap="round" stroke-linejoin="round"/>
<path d="M4779.8 2107.48C4797.27 2055.29 4823.21 2004.26 4849.71 1965.71" stroke="#1B3C87" stroke-width="25" stroke-linecap="round" stroke-linejoin="round"/>
<path d="M5064.4 2613.49C5034.58 2619.49 5004.33 2619.7 4974.55 2613.33C4835.14 2583.52 4746.39 2428.08 4754.28 2247.02" stroke="#1B3C87" stroke-width="25" stroke-linecap="round" stroke-linejoin="round"/>
<path d="M5139.37 2779.77C5638.1 3019.77 5509.92 4065.66 5347.64 4539.07" stroke="#1B3C87" stroke-width="25" stroke-linecap="round" stroke-linejoin="round"/>
<path d="M4124.52 3695.35C4233.81 3239 4439.4 2795.13 4826 2735.65" stroke="#1B3C87" stroke-width="25" stroke-linecap="round" stroke-linejoin="round"/>
<path d="M4007.74 4539.56C4013.81 4430.77 4025 4288.44 4045.58 4131.31" stroke="#1B3C87" stroke-width="25" stroke-linecap="round" stroke-linejoin="round"/>
<path d="M5286.48 4075.46C5295.48 4208.46 5305.27 4331.28 5312.8 4367.94C5273.02 4416.31 5180.53 4539.16 5180.53 4539.16" stroke="#1B3C87" stroke-width="25" stroke-linecap="round" stroke-linejoin="round"/>
<path d="M5261.48 3669.45C5262.62 3686.12 5265.94 3744.58 5270.48 3821.32" stroke="#1B3C87" stroke-width="25" stroke-linecap="round" stroke-linejoin="round"/>
<path d="M4129.17 3252.46C4115.83 3271.98 4010.31 3428.78 4010.31 3428.78C4010.31 3428.78 3538.31 2870.27 3506.31 2826.49C3410.62 2695.75 3365 2536.08 3359.75 2501C3354.75 2467.86 3338.75 2428.74 3311.02 2447.08C3267.24 2480.08 3295.86 2648.85 3329.47 2706.52" stroke="#1B3C87" stroke-width="25" stroke-linecap="round" stroke-linejoin="round"/>
<path d="M3274.76 2725.82C3275.9 2754.92 3302.65 2844.37 3345.76 2884.96" stroke="#1B3C87" stroke-width="25" stroke-linecap="round" stroke-linejoin="round"/>
<path d="M3223.49 2777.55C3227.49 2806.39 3262.95 2892.77 3309.89 2928.9" stroke="#1B3C87" stroke-width="25" stroke-linecap="round" stroke-linejoin="round"/>
<path d="M3172.63 2830.51C3178.37 2859.06 3218.96 2943.14 3267.99 2976.38" stroke="#1B3C87" stroke-width="25" stroke-linecap="round" stroke-linejoin="round"/>
<path d="M3652.21 3512.68C3554.47 3339.13 3471.53 3145.74 3370 3004.2" stroke="#1B3C87" stroke-width="25" stroke-linecap="round" stroke-linejoin="round"/>
<path d="M4077.63 3919.1C3987.27 3897.35 3911.28 3848.1 3844.78 3781.69" stroke="#1B3C87" stroke-width="25" stroke-linecap="round" stroke-linejoin="round"/>
<path d="M4832.51 2142.63C4839.7 2108.5 4865.51 2085.04 4890.18 2090.23C4914.85 2095.42 4929.01 2127.29 4921.83 2161.43" stroke="#1B3C87" stroke-width="25" stroke-linecap="round" stroke-linejoin="round"/>
<path d="M5068.75 2197.44C5075.93 2163.31 5101.75 2139.85 5126.42 2145.04C5151.09 2150.23 5165.25 2182.1 5158.07 2216.24" stroke="#1B3C87" stroke-width="25" stroke-linecap="round" stroke-linejoin="round"/>
<path d="M4964.19 2212.23C4949.54 2232.49 4911.19 2277.69 4893.12 2286.42" stroke="#1B3C87" stroke-width="25" stroke-linecap="round" stroke-linejoin="round"/>
<path d="M4974.19 2356C4995.19 2360.23 5040.91 2363.21 5087.19 2354.46C5096.73 2388.37 5087.19 2462.29 5000.95 2474.65" stroke="#1B3C87" stroke-width="25" stroke-linecap="round" stroke-linejoin="round"/>
<path d="M611.32 2888.11H1161" stroke="#1B3C87" stroke-width="25" stroke-linecap="round" stroke-linejoin="round"/>
<path d="M194 4539.2L12.5 3069.77C12.5 3045.91 17.1991 3022.29 26.329 3000.25C35.4589 2978.21 48.8408 2958.18 65.7105 2941.31C82.5803 2924.44 102.607 2911.06 124.649 2901.93C146.69 2892.81 170.313 2888.11 194.17 2888.11H262.61" stroke="#1B3C87" stroke-width="25" stroke-linecap="round" stroke-linejoin="round"/>
<path d="M5852.52 2930.08H5472.3" stroke="#1B3C87" stroke-width="25" stroke-linecap="round" stroke-linejoin="round"/>
<path d="M5813.75 4539.49L6029.44 3296.37" stroke="#1B3C87" stroke-width="25" stroke-linecap="round" stroke-linejoin="round"/>
<path d="M2209.93 1957L2209.75 2075.91L2455.65 1824.69H3133.53V1418.77H3036.33" stroke="#1B3C87" stroke-width="25" stroke-linecap="round" stroke-linejoin="round"/>
<path d="M2822.62 1418.77H2210.12V1756.51" stroke="#1B3C87" stroke-width="25" stroke-linecap="round" stroke-linejoin="round"/>
<path d="M2317.36 1541.73H2987.67" stroke="#1B3C87" stroke-width="25" stroke-linecap="round" stroke-linejoin="round"/>
<path d="M2317.36 1700.14H2551.36" stroke="#1B3C87" stroke-width="25" stroke-linecap="round" stroke-linejoin="round"/>
<path d="M4164.82 876.46H4292.51V1282.39L4292.88 1533.61L4047 1282.39H3369.1V1227.78" stroke="#1B3C87" stroke-width="25" stroke-linecap="round" stroke-linejoin="round"/>
<path d="M3369.1 1070.9V876.46H3880.24" stroke="#1B3C87" stroke-width="25" stroke-linecap="round" stroke-linejoin="round"/>
<path d="M4185.27 999.42H3515" stroke="#1B3C87" stroke-width="25" stroke-linecap="round" stroke-linejoin="round"/>
<path d="M3753.24 1157.83H3519.24" stroke="#1B3C87" stroke-width="25" stroke-linecap="round" stroke-linejoin="round"/>
<path d="M501.46 3584.11L502.15 3585.89C478.34 3639.26 264.96 4243.35 274.34 4293.41C283.77 4343.8 333.78 4432.62 370.56 4453.16C387.37 4462.57 555.74 4498.62 756.56 4541.74H1967.69C1942.95 4478.74 1839.56 4426.79 1743.9 4426.6C1711.45 4425.53 1660.68 4427.75 1623.81 4469.89C1258.94 4301.49 850.22 4205.24 731.4 4174.3L718.4 4140.64C757.91 4065.07 877.02 3846.39 893.65 3812.33C830.35 3780.16 505.82 3586.72 503 3585L502.79 3584.4C502.79 3584.47 502.66 3584.68 502.63 3584.75L501.46 3584.11Z" fill="white"/>
<path d="M318.55 4037.81C282.55 4151.24 256.08 4244.64 259.55 4263.05C268.98 4313.43 318.96 4402.22 355.74 4422.78C376.08 4434.14 614.34 4484.87 868.48 4539.78" stroke="#1B3C87" stroke-width="25" stroke-linecap="round" stroke-linejoin="round"/>
<path d="M486.19 3553.78C476.81 3574.13 431.11 3700.89 383.19 3842" stroke="#1B3C87" stroke-width="25" stroke-linecap="round" stroke-linejoin="round"/>
<path d="M881.79 3779.93C857.16 3820.03 697.15 4122.3 693.12 4134.93C768.78 4157.04 1218.21 4255.79 1611.99 4437.54C1648.87 4395.39 1699.62 4393.18 1732.07 4394.26C1842.51 4394.47 1961.42 4451.6 1961.42 4539.26" stroke="#1B3C87" stroke-width="25" stroke-linecap="round" stroke-linejoin="round"/>
<path d="M1059.75 3042.47C1332.12 3201.72 1046.67 3807.58 972.97 3826.85C828.14 3836.85 494.62 3627.75 462.52 3543.11C430.42 3458.47 791 2885.31 1059.75 3042.47Z" fill="#00CAFE"/>
<path d="M1141.8 3393.71C1101.24 3587.39 996.58 3775.58 956.02 3786.19C811.19 3796.19 477.67 3587.08 445.57 3502.43C433.81 3471.43 474.78 3374.78 544.64 3272.54" stroke="#1B3C87" stroke-width="25" stroke-linecap="round" stroke-linejoin="round"/>
<path d="M713 3080.77C817.54 2991.01 937.27 2940.07 1042.84 3001.77C1084.84 3026.34 1113.61 3061.55 1131.91 3103.6" stroke="#1B3C87" stroke-width="25" stroke-linecap="round" stroke-linejoin="round"/>
<path d="M1220.14 2997.36C1259.8 2889.55 1253.67 2527.14 1249.74 2491.29C1245 2448.02 1212.42 2135.99 1290.65 2070.07C1368.88 2004.15 1489.12 1930.28 1560.1 1935.35C1631.08 1940.42 1842.32 2152.98 1842.32 2410.35C1842.32 2667.72 1608.32 2790.66 1553.43 2792.35C1545.93 2849.5 1546.51 3002.47 1546.51 3057.88C1524 3079.47 1277.67 3072.21 1220.14 2997.36Z" fill="white"/>
<path d="M1259.2 2265.68C1222.53 2263.44 1194.05 2296.52 1163.43 2328.09C1136 2125 1231.69 1767.87 1369 1743.44C1392.6 1744.37 1395.57 1775.65 1388.68 1803.18C1474.81 1724.62 1636.59 1680.97 1705.26 1680.39C1794.26 1680.39 1825.72 1750.58 1825.72 1774.67C1825.72 1835.67 1785.72 1926.81 1771.01 1950.41C1794.55 1937.89 1813.41 1933.32 1831.6 1933.32C1877.38 1933.32 1888.6 2004.32 1888.6 2025.48C1888.6 2099.32 1810.41 2174.48 1771.6 2174.48C1753.41 2174.48 1703.13 2146.15 1687.89 2125.01C1693.26 2140.71 1699.22 2145.11 1699.44 2169.24C1699.61 2189.15 1670.67 2200.08 1653.44 2200.08C1607.82 2200.08 1517.38 2111.08 1434.64 2111.08C1407.11 2111.08 1372.37 2150.53 1372.37 2172.77C1372.37 2195.01 1384 2300 1377 2303.65C1355.64 2320.48 1345.73 2270.42 1260.93 2264.98" fill="#EECB55"/>
<path d="M1777.92 2538.88C1725.07 2669.55 1617.04 2759.09 1492.35 2759.09C1429.21 2759.09 1370.35 2736.09 1320.75 2696.49" stroke="#1B3C87" stroke-width="25" stroke-linecap="round" stroke-linejoin="round"/>
<path d="M1765.89 2148.79C1797.4 2211.05 1812.44 2277.86 1812.44 2357.09C1812.45 2375.58 1811.44 2394.06 1809.44 2412.45" stroke="#1B3C87" stroke-width="25" stroke-linecap="round" stroke-linejoin="round"/>
<path d="M1517 3025.08C1513.55 2961.33 1515.5 2795.15 1524.11 2758.97" stroke="#1B3C87" stroke-width="25" stroke-linecap="round" stroke-linejoin="round"/>
<path d="M1219.66 2795.48C1214.66 2860.61 1206.36 2921.59 1193.06 2963.63C1218.4 2993.35 1286.35 3016.08 1357.06 3026.72" stroke="#1B3C87" stroke-width="25" stroke-linecap="round" stroke-linejoin="round"/>
<path d="M1219.48 2462.81C1223.37 2481.41 1227.26 2567.67 1225.48 2667" stroke="#1B3C87" stroke-width="25" stroke-linecap="round" stroke-linejoin="round"/>
<path d="M1447 2278.2C1447 2258.97 1455.27 2243.37 1465.48 2243.37C1475.69 2243.37 1483.95 2258.97 1483.95 2278.2C1483.95 2297.43 1475.68 2313.03 1465.48 2313.03C1455.28 2313.03 1447 2297.44 1447 2278.2Z" fill="#1B3C87"/>
<path d="M1709.86 2292.13C1709.86 2272.9 1718.13 2257.31 1728.33 2257.31C1738.53 2257.31 1746.81 2272.9 1746.81 2292.13C1746.81 2311.36 1738.54 2326.96 1728.33 2326.96C1718.12 2326.96 1709.86 2311.37 1709.86 2292.13Z" fill="#1B3C87"/>
<path d="M1635.8 2370.21C1640.13 2400.9 1665.2 2452.33 1692.86 2472.21" stroke="#1B3C87" stroke-width="25" stroke-linecap="round" stroke-linejoin="round"/>
<path d="M1620.68 2546.56C1601.68 2543.97 1541.14 2511.56 1529.04 2488.21C1506.56 2499.02 1495.32 2575.52 1541.14 2587.21" stroke="#1B3C87" stroke-width="25" stroke-linecap="round" stroke-linejoin="round"/>
<path d="M1766.32 2148.68C1761.57 2150.47 1756.56 2151.45 1751.49 2151.58C1714.87 2151.58 1653.38 2090.08 1653.38 2090.08C1667.2 2123.94 1675.49 2133.61 1675.49 2147.43C1675.49 2161.25 1658.21 2176.43 1632.66 2177.14C1570.42 2178.91 1501.66 2088.42 1414.3 2088.42C1391.53 2088.42 1347.04 2119.59 1347.04 2157.26C1347.04 2182.68 1355.04 2255.76 1355.04 2273.26C1355.04 2280.26 1351.04 2284.94 1343.58 2288.07" stroke="#1B3C87" stroke-width="25" stroke-linecap="round" stroke-linejoin="round"/>
<path d="M1637.14 1663.91C1651.01 1662.02 1665 1661.05 1679 1661C1746.71 1661 1801.29 1706.6 1801.29 1757.73C1801.29 1808.86 1763.29 1909.73 1737.72 1933.92C1771.58 1918.72 1781.25 1913.19 1804.72 1913.19C1854.24 1913.19 1863.45 1965.7 1863.45 2005.08C1863.45 2074.21 1805.3 2134.95 1766.35 2148.66" stroke="#1B3C87" stroke-width="25" stroke-linecap="round" stroke-linejoin="round"/>
<path d="M1214.29 1864.09C1258.84 1770.65 1310.87 1721.09 1335.01 1721.09C1381.62 1721.09 1366.51 1770.22 1364.62 1785.97C1381.62 1768.54 1448.42 1723.59 1529.07 1692.64" stroke="#1B3C87" stroke-width="25" stroke-linecap="round" stroke-linejoin="round"/>
<path d="M1138.49 2198.11C1141.72 2103.93 1157.34 2022.54 1178.71 1954.98" stroke="#1B3C87" stroke-width="25" stroke-linecap="round" stroke-linejoin="round"/>
<path d="M1280.43 2473.85C1260.21 2477.11 1239.49 2474.73 1220.53 2466.98C1201.58 2459.22 1185.13 2446.39 1173 2429.89C1160.87 2413.39 1153.53 2393.86 1151.78 2373.46C1150.03 2353.05 1153.95 2332.56 1163.09 2314.24C1172.24 2295.92 1186.26 2280.47 1203.62 2269.6C1220.97 2258.73 1240.99 2252.86 1261.47 2252.64C1281.95 2252.41 1302.09 2257.84 1319.68 2268.32C1337.27 2278.81 1351.63 2293.94 1361.18 2312.06" fill="white"/>
<path d="M1267.61 2463.17C1247.39 2466.43 1226.67 2464.05 1207.71 2456.3C1188.76 2448.54 1172.31 2435.71 1160.18 2419.21C1148.05 2402.71 1140.71 2383.18 1138.96 2362.78C1137.21 2342.37 1141.13 2321.88 1150.27 2303.56C1159.42 2285.24 1173.44 2269.79 1190.8 2258.92C1208.15 2248.05 1228.17 2242.18 1248.65 2241.96C1269.13 2241.73 1289.27 2247.16 1306.86 2257.64C1324.45 2268.13 1338.81 2283.26 1348.36 2301.38" stroke="#1B3C87" stroke-width="25" stroke-linecap="round" stroke-linejoin="round"/>
<path d="M5716.5 3629.83C5635 3671.68 5478.5 3696.1 5280.5 3703.02C5286 3819.27 5312.6 4185.81 5326.75 4386.96C5295.93 4431.91 5250.91 4490.62 5215.06 4536.41H5552.28C5605.09 4451.41 5678.05 4329.51 5688.87 4300.46C5705.5 4255.81 5710.19 3823.6 5716.5 3629.83Z" fill="white"/>
<path d="M5700.08 3592.52C5698.58 3645.71 5683.6 4249.52 5670.87 4286.98C5658.14 4324.44 5554.87 4495.62 5521.87 4539.98" stroke="#1B3C87" stroke-width="25" stroke-linecap="round" stroke-linejoin="round"/>
<path d="M5357.89 2921.42C5631.59 2861.66 5819.48 3526.86 5779.43 3582.79C5739.38 3638.72 5246.09 3719.87 5202.05 3679.79C5158.01 3639.71 5128.68 2971.47 5357.89 2921.42Z" fill="#00CAFE"/>
<path d="M5426.29 3652.29C5307.39 3669.82 5197.53 3676.19 5177.8 3658.23C5151.97 3634.71 5131.19 3394.97 5164.72 3190.72" stroke="#1B3C87" stroke-width="25" stroke-linecap="round" stroke-linejoin="round"/>
<path d="M5378.54 2896.4C5627.54 2912.29 5793 3508.4 5755.19 3561.23C5744.19 3576.62 5698.84 3593.92 5638 3610.08" stroke="#1B3C87" stroke-width="25" stroke-linecap="round" stroke-linejoin="round"/>
<path d="M5416.11 2322.78C5486.41 2253.12 5524.45 2101.69 5524.45 2018.89C5524.45 1848.66 5424.32 1778.79 5405.59 1778.79C5386.86 1778.79 5367.18 1818.18 5370.18 1845.73C5353.27 1822.27 5204.89 1677.13 4937.43 1677.13C4863.34 1677.13 4810.13 1713.02 4810.13 1772.04C4810.13 1798.88 4822.56 1840.77 4844.13 1855.17C4822.2 1856.8 4791.13 1872.48 4791.13 1916.04C4791.13 1965.8 4857.9 1989.34 4884.4 1989.34C4910.9 1989.34 4950.18 1961.85 4969.16 1936C4975.06 1964.47 4957.24 2010.86 5019.24 2011.27C5045.42 2011.44 5155.7 1955.63 5176.32 1936.98C5155.38 1972.98 5126.58 1989.51 5126.58 2030.25C5126.58 2068.36 5145.23 2095.05 5174.03 2095.05C5202.83 2095.05 5285.95 2055.78 5301.34 2038.05C5304.61 2063.91 5275.78 2244.34 5284.46 2293.53C5313.4 2295.7 5348.92 2258.85 5349.38 2289.06" fill="#E49D75"/>
<path d="M5097.28 1950.73C5124.41 1936.8 5148.55 1922.59 5157.13 1914.83C5136.19 1950.83 5107.39 1967.35 5107.39 2008.1C5107.39 2046.21 5126.04 2072.89 5154.84 2072.89C5183.64 2072.89 5266.76 2033.62 5282.14 2015.95C5285.42 2041.8 5256.59 2222.23 5265.27 2271.42C5294.21 2273.6 5329.73 2236.75 5330.19 2266.96" stroke="#1B3C87" stroke-width="25" stroke-linecap="round" stroke-linejoin="round"/>
<path d="M4997.33 1659.34C4971.07 1656.42 4944.66 1654.96 4918.23 1654.98C4844.14 1654.98 4790.92 1690.87 4790.92 1749.89C4790.92 1776.72 4803.36 1818.61 4824.92 1833.01C4802.99 1834.65 4771.92 1850.33 4771.92 1893.88C4771.92 1943.65 4838.68 1967.19 4865.19 1967.19C4891.7 1967.19 4930.97 1939.7 4949.95 1913.84C4955.35 1939.9 4940.88 1980.98 4985.95 1988.06" stroke="#1B3C87" stroke-width="25" stroke-linecap="round" stroke-linejoin="round"/>
<path d="M5495.66 2083.06C5502 2050.93 5505.25 2020.91 5505.25 1996.73C5505.25 1826.51 5405.12 1756.63 5386.39 1756.63C5367.66 1756.63 5348 1796 5351 1823.57C5339.64 1807.82 5268.93 1737.13 5142.64 1692.44" stroke="#1B3C87" stroke-width="25" stroke-linecap="round" stroke-linejoin="round"/>
<path d="M5396.91 2300.63C5421.18 2276.57 5441.61 2242.77 5457.96 2205.41" stroke="#1B3C87" stroke-width="25" stroke-linecap="round" stroke-linejoin="round"/>
<path d="M5312.19 2272.21C5325.77 2267.22 5340.54 2266.39 5354.59 2269.83C5368.65 2273.27 5381.36 2280.82 5391.1 2291.52C5400.85 2302.22 5407.18 2315.58 5409.29 2329.9C5411.41 2344.21 5409.2 2358.83 5402.97 2371.89C5396.73 2384.95 5386.74 2395.85 5374.28 2403.21C5361.81 2410.56 5347.44 2414.03 5333 2413.18C5318.55 2412.32 5304.69 2407.18 5293.18 2398.41C5281.67 2389.64 5273.03 2377.63 5268.38 2363.93" stroke="#1B3C87" stroke-width="25" stroke-linecap="round" stroke-linejoin="round"/>
<path d="M77.5 4539.73H6108.4" stroke="#1B3C87" stroke-width="25" stroke-linecap="round" stroke-linejoin="round"/>
</g>
<defs>
<clipPath id="clip0_1_345">
<rect width="6120.9" height="5275.15" fill="white"/>
</clipPath>
</defs>
</svg>
